<mxfile host="65bd71144e">
    <diagram id="vWF2wPIb5ag1sQDOku2k" name="Страница 1">
        <mxGraphModel dx="1386" dy="813" grid="1" gridSize="10" guides="1" tooltips="1" connect="1" arrows="1" fold="1" page="1" pageScale="1" pageWidth="1169" pageHeight="827" math="0" shadow="0">
            <root>
                <mxCell id="0"/>
                <mxCell id="1" parent="0"/>
                <mxCell id="19" style="edgeStyle=orthogonalEdgeStyle;curved=1;html=1;fontSize=24;" edge="1" parent="1" source="2" target="7">
                    <mxGeometry relative="1" as="geometry">
                        <Array as="points">
                            <mxPoint x="480" y="540"/>
                            <mxPoint x="480" y="540"/>
                        </Array>
                    </mxGeometry>
                </mxCell>
                <mxCell id="2" value="УК/УО/КО" style="shape=cube;whiteSpace=wrap;html=1;boundedLbl=1;backgroundOutline=1;darkOpacity=0.05;darkOpacity2=0.1;" vertex="1" parent="1">
                    <mxGeometry x="110" y="499" width="120" height="80" as="geometry"/>
                </mxCell>
                <mxCell id="4" value="" style="endArrow=classic;html=1;edgeStyle=orthogonalEdgeStyle;curved=1;exitX=0;exitY=0;exitDx=50;exitDy=0;exitPerimeter=0;" edge="1" parent="1" source="2" target="3">
                    <mxGeometry width="50" height="50" relative="1" as="geometry">
                        <mxPoint x="730" y="439" as="sourcePoint"/>
                        <mxPoint x="780" y="389" as="targetPoint"/>
                        <Array as="points">
                            <mxPoint x="160" y="329"/>
                        </Array>
                    </mxGeometry>
                </mxCell>
                <mxCell id="5" value="Заведение ресурсов" style="edgeLabel;html=1;align=center;verticalAlign=middle;resizable=0;points=[];" vertex="1" connectable="0" parent="4">
                    <mxGeometry x="0.2288" y="-47" relative="1" as="geometry">
                        <mxPoint x="-40" y="-16" as="offset"/>
                    </mxGeometry>
                </mxCell>
                <mxCell id="6" value="Клиент Ujin передает информацию об объектах недвижимости, резидентах и прочих реестровых сущностях на платформу Ujin" style="text;html=1;strokeColor=none;fillColor=none;align=center;verticalAlign=middle;whiteSpace=wrap;rounded=0;" vertex="1" parent="1">
                    <mxGeometry x="180" y="179" width="150" height="110" as="geometry"/>
                </mxCell>
                <mxCell id="20" style="edgeStyle=orthogonalEdgeStyle;curved=1;html=1;fontSize=24;" edge="1" parent="1" source="7" target="2">
                    <mxGeometry relative="1" as="geometry">
                        <Array as="points">
                            <mxPoint x="310" y="560"/>
                            <mxPoint x="310" y="560"/>
                        </Array>
                    </mxGeometry>
                </mxCell>
                <mxCell id="21" style="edgeStyle=orthogonalEdgeStyle;curved=1;html=1;fontSize=24;" edge="1" parent="1" source="7" target="8">
                    <mxGeometry relative="1" as="geometry">
                        <Array as="points">
                            <mxPoint x="800" y="560"/>
                            <mxPoint x="800" y="560"/>
                        </Array>
                    </mxGeometry>
                </mxCell>
                <mxCell id="23" value="api" style="edgeLabel;html=1;align=center;verticalAlign=middle;resizable=0;points=[];fontSize=12;" vertex="1" connectable="0" parent="21">
                    <mxGeometry x="-0.0963" relative="1" as="geometry">
                        <mxPoint x="21" y="-1" as="offset"/>
                    </mxGeometry>
                </mxCell>
                <mxCell id="7" value="Ujin Backend" style="rounded=1;whiteSpace=wrap;html=1;" vertex="1" parent="1">
                    <mxGeometry x="554" y="519" width="120" height="60" as="geometry"/>
                </mxCell>
                <mxCell id="22" style="edgeStyle=orthogonalEdgeStyle;curved=1;html=1;fontSize=24;" edge="1" parent="1" source="8" target="7">
                    <mxGeometry relative="1" as="geometry">
                        <Array as="points">
                            <mxPoint x="810" y="540"/>
                            <mxPoint x="810" y="540"/>
                        </Array>
                    </mxGeometry>
                </mxCell>
                <mxCell id="24" value="callback" style="edgeLabel;html=1;align=center;verticalAlign=middle;resizable=0;points=[];fontSize=12;" vertex="1" connectable="0" parent="22">
                    <mxGeometry x="-0.0745" y="2" relative="1" as="geometry">
                        <mxPoint x="-7" as="offset"/>
                    </mxGeometry>
                </mxCell>
                <mxCell id="8" value="&amp;lt;&amp;lt;Developer&amp;gt;&amp;gt;&lt;br&gt;Integration via SDK" style="rounded=0;whiteSpace=wrap;html=1;" vertex="1" parent="1">
                    <mxGeometry x="996" y="519" width="120" height="60" as="geometry"/>
                </mxCell>
                <mxCell id="9" value="" style="endArrow=classic;html=1;edgeStyle=orthogonalEdgeStyle;curved=1;exitX=0.5;exitY=0;exitDx=0;exitDy=0;" edge="1" parent="1" source="8" target="3">
                    <mxGeometry width="50" height="50" relative="1" as="geometry">
                        <mxPoint x="1056" y="520" as="sourcePoint"/>
                        <mxPoint x="564.000035444245" y="339.0434782608696" as="targetPoint"/>
                        <Array as="points">
                            <mxPoint x="1056" y="330"/>
                        </Array>
                    </mxGeometry>
                </mxCell>
                <mxCell id="11" value="Регистрация в ЛК Разработчика" style="edgeLabel;html=1;align=center;verticalAlign=middle;resizable=0;points=[];" vertex="1" connectable="0" parent="9">
                    <mxGeometry x="-0.2811" y="43" relative="1" as="geometry">
                        <mxPoint x="-82" y="-3" as="offset"/>
                    </mxGeometry>
                </mxCell>
                <mxCell id="17" style="edgeStyle=orthogonalEdgeStyle;curved=1;html=1;exitX=1;exitY=1;exitDx=0;exitDy=0;" edge="1" parent="1" source="12" target="8">
                    <mxGeometry relative="1" as="geometry">
                        <Array as="points">
                            <mxPoint x="687" y="450"/>
                            <mxPoint x="840" y="450"/>
                            <mxPoint x="840" y="520"/>
                        </Array>
                    </mxGeometry>
                </mxCell>
                <mxCell id="18" value="уведомление о решении" style="edgeLabel;html=1;align=center;verticalAlign=middle;resizable=0;points=[];" vertex="1" connectable="0" parent="17">
                    <mxGeometry x="0.5292" y="10" relative="1" as="geometry">
                        <mxPoint as="offset"/>
                    </mxGeometry>
                </mxCell>
                <mxCell id="14" value="" style="endArrow=classic;html=1;edgeStyle=orthogonalEdgeStyle;curved=1;exitX=0.5;exitY=0;exitDx=0;exitDy=0;" edge="1" parent="1" source="8" target="12">
                    <mxGeometry width="50" height="50" relative="1" as="geometry">
                        <mxPoint x="880.04347826087" y="529" as="sourcePoint"/>
                        <mxPoint x="683.9999645557552" y="339.0434782608696" as="targetPoint"/>
                        <Array as="points">
                            <mxPoint x="1056" y="480"/>
                            <mxPoint x="870" y="480"/>
                            <mxPoint x="870" y="385"/>
                        </Array>
                    </mxGeometry>
                </mxCell>
                <mxCell id="16" value="Заявка для получения прав на ресурсы УК/УО/КО" style="edgeLabel;html=1;align=center;verticalAlign=middle;resizable=0;points=[];" vertex="1" connectable="0" parent="14">
                    <mxGeometry x="-0.1144" y="-4" relative="1" as="geometry">
                        <mxPoint x="-4" y="-40" as="offset"/>
                    </mxGeometry>
                </mxCell>
                <mxCell id="25" value="Разработчик, возможно, подрядчик клиента Ujin регистрирует аккаунт разработчика и делает запрос на получение прав на ресурсы клиента Ujin.&lt;br&gt;&lt;br&gt;Проверка проводится сотрудниками Ujin, а затем в ЛК Разработчика приходит уведомление о решении по заявке." style="text;html=1;strokeColor=none;fillColor=none;align=center;verticalAlign=middle;whiteSpace=wrap;rounded=0;fontSize=12;" vertex="1" parent="1">
                    <mxGeometry x="830" y="169" width="270" height="130" as="geometry"/>
                </mxCell>
                <mxCell id="26" value="При положительном результате проверки, приложение считается верифицированным и имеющим право на ресурсы клиента Ujin.&lt;br&gt;&lt;br&gt;Открывается возможность по мастер-ключу использовать методы воздействия на ресуры клиента Ujin средствами платформы Ujin, илспользуя открытое API или SDK." style="text;html=1;strokeColor=none;fillColor=none;align=center;verticalAlign=middle;whiteSpace=wrap;rounded=0;fontSize=12;" vertex="1" parent="1">
                    <mxGeometry x="434" y="610" width="360" height="110" as="geometry"/>
                </mxCell>
                <mxCell id="27" value="" style="group" vertex="1" connectable="0" parent="1">
                    <mxGeometry x="554" y="289" width="146" height="141" as="geometry"/>
                </mxCell>
                <mxCell id="3" value="Ujin" style="ellipse;whiteSpace=wrap;html=1;fontSize=24;" vertex="1" parent="27">
                    <mxGeometry width="120" height="80" as="geometry"/>
                </mxCell>
                <mxCell id="12" value="проверки и согласования" style="ellipse;whiteSpace=wrap;html=1;aspect=fixed;" vertex="1" parent="27">
                    <mxGeometry x="56" y="51" width="90" height="90" as="geometry"/>
                </mxCell>
            </root>
        </mxGraphModel>
    </diagram>
</mxfile>